<?xml version="1.0" encoding="UTF-8"?>
<svg xmlns="http://www.w3.org/2000/svg" xmlns:xlink="http://www.w3.org/1999/xlink" width="30px" height="30px" viewBox="0 0 30 30" version="1.1">
<g id="surface1">
<path style=" stroke:none;fill-rule:nonzero;fill:rgb(39.215686%,45.490196%,54.509804%);fill-opacity:1;" d="M 15 23.164062 C 11.625 23.164062 7.996094 21.84375 4.5 19.347656 C 1.886719 17.480469 0.273438 15.632812 0.207031 15.554688 C -0.0703125 15.238281 -0.0703125 14.761719 0.207031 14.445312 C 0.273438 14.367188 1.886719 12.519531 4.5 10.652344 C 7.996094 8.15625 11.625 6.835938 15 6.835938 C 18.375 6.835938 22.003906 8.15625 25.5 10.652344 C 28.113281 12.519531 29.726562 14.367188 29.792969 14.445312 C 30.070312 14.761719 30.070312 15.238281 29.792969 15.554688 C 29.726562 15.632812 28.113281 17.480469 25.5 19.347656 C 22.003906 21.84375 18.375 23.164062 15 23.164062 Z M 2.011719 15 C 2.664062 15.664062 3.894531 16.835938 5.519531 17.992188 C 7.746094 19.578125 11.203125 21.464844 15 21.464844 C 18.800781 21.464844 22.253906 19.578125 24.480469 17.992188 C 26.105469 16.835938 27.335938 15.664062 27.988281 15 C 27.335938 14.335938 26.105469 13.164062 24.480469 12.007812 C 22.253906 10.421875 18.800781 8.535156 15 8.535156 C 11.203125 8.535156 7.746094 10.421875 5.519531 12.007812 C 3.894531 13.164062 2.664062 14.335938 2.011719 15 Z M 2.011719 15 "/>
<path style=" stroke:none;fill-rule:nonzero;fill:rgb(39.215686%,45.490196%,54.509804%);fill-opacity:1;" d="M 15 20.257812 C 12.101562 20.257812 9.742188 17.898438 9.742188 15 C 9.742188 12.101562 12.101562 9.742188 15 9.742188 C 16.277344 9.742188 17.507812 10.203125 18.464844 11.042969 C 18.816406 11.351562 18.851562 11.886719 18.542969 12.238281 C 18.234375 12.59375 17.699219 12.628906 17.347656 12.320312 C 16.699219 11.75 15.863281 11.4375 15 11.4375 C 13.035156 11.4375 11.4375 13.035156 11.4375 15 C 11.4375 16.964844 13.035156 18.5625 15 18.5625 C 16.964844 18.5625 18.5625 16.964844 18.5625 15 C 18.5625 14.53125 18.941406 14.152344 19.410156 14.152344 C 19.878906 14.152344 20.257812 14.53125 20.257812 15 C 20.261719 17.898438 17.898438 20.257812 15 20.257812 Z M 15 20.257812 "/>
<path style=" stroke:none;fill-rule:nonzero;fill:rgb(39.215686%,45.490196%,54.509804%);fill-opacity:1;" d="M 15 16.695312 C 14.066406 16.695312 13.304688 15.9375 13.304688 15 C 13.304688 14.066406 14.066406 13.304688 15 13.304688 C 15.9375 13.304688 16.695312 14.066406 16.695312 15 C 16.695312 15.9375 15.9375 16.695312 15 16.695312 Z M 15 16.695312 "/>
</g>
</svg>
