<svg width="15" height="15" viewBox="0 0 15 15" fill="none" xmlns="http://www.w3.org/2000/svg">
<path d="M5.34668 0.0585909C3.97852 0.269528 2.77734 0.878903 1.80176 1.86035C0.796875 2.86816 0.202148 4.07812 0.0292969 5.47851C-0.00878906 5.79785 -0.00878906 6.62402 0.0292969 6.94336C0.140625 7.83398 0.457031 8.73926 0.916992 9.46289C1.42383 10.2686 2.19434 11.0273 2.99121 11.5078C3.78223 11.9824 4.65527 12.2812 5.56641 12.3926C5.94141 12.4365 6.77344 12.4277 7.1543 12.375C8.24707 12.2227 9.2373 11.8271 10.084 11.2031C10.1836 11.1328 10.2744 11.0771 10.2861 11.0801C10.2979 11.0859 11.1797 11.9443 12.2461 12.9932C13.3125 14.0391 14.2236 14.9209 14.2764 14.9473C14.4756 15.0586 14.792 14.9912 14.918 14.8154C14.9941 14.707 15.0234 14.4521 14.9707 14.3262C14.9443 14.2588 12.2109 11.5342 11.1211 10.4853L11.0068 10.374L11.1885 10.1602C11.6045 9.67383 12.0586 8.88574 12.2725 8.27929C12.8232 6.71777 12.7324 5.00976 12.0264 3.55078C11.7012 2.87988 11.335 2.36718 10.7871 1.82226C9.79395 0.832028 8.48438 0.202146 7.06055 0.029294C6.65918 -0.017581 5.75098 -0.00293255 5.34668 0.0585909ZM6.74707 0.996091C9.00879 1.18359 10.8867 2.74511 11.4639 4.92187C11.5811 5.36718 11.6162 5.66015 11.6162 6.21093C11.6162 6.76172 11.5811 7.05468 11.4639 7.5C11.2178 8.42285 10.7695 9.20508 10.0898 9.88476C8.66016 11.3174 6.52148 11.8125 4.59082 11.1592C3.06738 10.6436 1.83984 9.4541 1.30957 7.9834C0.767578 6.48047 0.931641 4.84277 1.75781 3.50976C2.72461 1.9541 4.38281 1.0166 6.25488 0.972653C6.33691 0.969724 6.55664 0.981442 6.74707 0.996091Z" fill="#7E7E7E"/>
</svg>
